<svg id="Layer_1" enable-background="new 0 0 512.035 512.035" height="512" viewBox="0 0 512.035 512.035" width="512" xmlns="http://www.w3.org/2000/svg"><g><path d="m366.987 261.275-125.96-48.45c-23.672-9.101-41-31.833-41-60.56.44-30.9 25.47-56.12 55.8-56.23 32.131 0 56.19 25.99 56.19 56 0 26.18 21.19 48.169 48.42 48 26.43-.23 47.77-22.27 47.58-49.14-.3-40.17-16.11-77.94-44.52-106.34-59.38-59.401-155.569-59.411-214.96 0-28.71 28.7-44.52 66.87-44.52 107.48v312c0 26.47 21.53 48 48 48h208c26.47 0 48-21.53 48-48v-143.03c0-26.29-16.49-50.3-41.03-59.73zm-39.97 186.76h-143c-8.84 0-16-7.16-16-16s7.16-16 16-16h143c8.84 0 16 7.16 16 16s-7.16 16-16 16zm0-64h-143c-8.84 0-16-7.16-16-16s7.16-16 16-16h143c8.84 0 16 7.16 16 16s-7.16 16-16 16z"/></g></svg>